<svg version="1.1" id="Layer_1" xmlns="http://www.w3.org/2000/svg" xmlns:xlink="http://www.w3.org/1999/xlink" x="0px" y="0px" viewBox="0 0 96 120" style="enable-background:new 0 0 96 120;" xml:space="preserve"> <g> <path d="M70,32c-1.1,0-2,0.9-2,2c0,0,0,0,0,0v4c0,1.1,0.9,2,2,2s2-0.9,2-2v-4C72,32.9,71.1,32,70,32C70,32,70,32,70,32z"></path> <path d="M70,44c-1.1,0-2,0.9-2,2c0,0,0,0,0,0v4c0,1.1,0.9,2,2,2s2-0.9,2-2v-4C72,44.9,71.1,44,70,44C70,44,70,44,70,44z"></path> <path d="M70,56c-1.1,0-2,0.9-2,2c0,0,0,0,0,0v4c0,1.1,0.9,2,2,2s2-0.9,2-2v-4C72,56.9,71.1,56,70,56C70,56,70,56,70,56z"></path> <path d="M90.4,40.2c0.9-0.2,1.6-1,1.6-2V22c0-1.1-0.9-2-2-2c0,0,0,0,0,0H6c-1.1,0-2,0.9-2,2c0,0,0,0,0,0v16.2c0,1,0.7,1.8,1.6,2 c4.3,0.9,7.1,5.1,6.2,9.4c-0.6,3.1-3.1,5.6-6.2,6.2c-0.9,0.2-1.6,1-1.6,2V74c0,1.1,0.9,2,2,2c0,0,0,0,0,0h84c1.1,0,2-0.9,2-2 c0,0,0,0,0,0V57.8c0-1-0.7-1.8-1.6-2c-4.3-0.9-7.1-5.1-6.2-9.4C84.8,43.3,87.3,40.8,90.4,40.2L90.4,40.2z M88,59.3V72H72v-2 c0-1.1-0.9-2-2-2s-2,0.9-2,2v2H8V59.3c6.2-2.2,9.5-9.1,7.3-15.3c-1.2-3.4-3.9-6.1-7.3-7.3V24h60v2c0,1.1,0.9,2,2,2s2-0.9,2-2v-2h16 v12.7c-6.2,2.2-9.5,9.1-7.3,15.3C81.9,55.4,84.6,58.1,88,59.3z"></path> </g> </svg>