<svg id="Layer_1" data-name="Layer 1" xmlns="http://www.w3.org/2000/svg" viewBox="0 0 343.55 168"><defs><style>.cls-1{fill:#ddd;}</style></defs><title>2nd home page offer</title><path class="cls-1" d="M325.72,1H20.29A19.08,19.08,0,0,0,1.23,20.07V150A19.07,19.07,0,0,0,20.29,169H325.72a19.06,19.06,0,0,0,19-19.05V20.07A19.07,19.07,0,0,0,325.72,1ZM197.22,34.37a18.41,18.41,0,1,1-18.41,18.41A18.41,18.41,0,0,1,197.22,34.37Zm34.52,112H115.89c-5.08,0-7.35-3.68-5-8.22l31.6-62.59c2.29-4.54,6.65-4.94,9.74-.91L184,116.19A7.79,7.79,0,0,0,196,117l7.77-7.87a7.39,7.39,0,0,1,11.75,1l20.13,28.75C238.58,143,236.83,146.38,231.74,146.38Z" transform="translate(-1.23 -1)"/></svg>